# Blender 4.5.3 LTS
# www.blender.org
mtllib arm1.mtl
o Arm
v 0.000000 0.000000 -0.232342
v 0.000000 0.800000 -0.180000
v 0.192133 0.000000 -0.116171
v 0.113020 0.800000 -0.090000
v 0.192133 0.000000 0.116171
v 0.113020 0.800000 0.090000
v 0.000000 0.000000 0.232342
v 0.000000 0.800000 0.180000
v -0.192133 0.000000 0.116171
v -0.113020 0.800000 0.090000
v -0.192133 0.000000 -0.116171
v -0.113020 0.800000 -0.090000
v 0.192133 0.000000 0.000000
v 0.113020 0.800000 0.000000
v -0.192133 0.000000 0.000000
v -0.113020 0.800000 0.000000
v 0.075133 0.916999 -0.059830
v 0.000000 0.916999 -0.119660
v 0.075133 0.916999 0.000000
v 0.000000 0.916999 0.119660
v 0.075133 0.916999 0.059830
v -0.075133 0.916999 0.059830
v -0.075133 0.916999 0.000000
v -0.075133 0.916999 -0.059830
v 0.046366 0.954080 -0.036922
v 0.000000 0.954080 -0.073845
v 0.046366 0.954080 0.000000
v 0.000000 0.954080 0.073845
v 0.046366 0.954080 0.036922
v -0.046366 0.954080 0.036922
v -0.046366 0.954080 0.000000
v -0.046366 0.954080 -0.036922
v 0.000000 0.520000 -0.206738
v 0.140709 0.520000 -0.103369
v 0.140709 0.520000 0.103369
v 0.000000 0.520000 0.206738
v -0.140709 0.520000 0.103369
v -0.140709 0.520000 -0.103369
v -0.140709 0.520000 0.000000
v 0.140709 0.520000 0.000000
vn 0.6039 0.0866 -0.7924
vn 0.9951 0.0984 -0.0000
vn 0.6039 0.0866 0.7924
vn -0.6039 0.0866 0.7924
vn 0.9514 0.3081 -0.0000
vn -0.9951 0.0984 -0.0000
vn -0.6039 0.0866 -0.7924
vn -0.0000 -1.0000 -0.0000
vn -0.9514 0.3081 -0.0000
vn 0.7901 0.6130 -0.0000
vn -0.4479 0.6950 0.5625
vn -0.4479 0.6950 -0.5625
vn -0.7901 0.6130 -0.0000
vn 0.5777 0.3741 -0.7255
vn 0.5777 0.3741 0.7255
vn -0.5777 0.3741 -0.7255
vn -0.5777 0.3741 0.7255
vn -0.0000 1.0000 -0.0000
vn 0.4479 0.6950 0.5625
vn 0.4479 0.6950 -0.5625
vn -0.5497 0.0580 -0.8334
vn -0.5497 0.0580 0.8334
vn 0.5497 0.0580 0.8334
vn 0.5497 0.0580 -0.8334
vt 1.000000 0.825000
vt 1.000000 1.000000
vt 0.833333 1.000000
vt 0.833333 0.825000
vt 0.750000 0.825000
vt 0.750000 1.000000
vt 0.666667 1.000000
vt 0.666667 0.825000
vt 0.500000 1.000000
vt 0.500000 0.825000
vt 0.333333 1.000000
vt 0.333333 0.825000
vt 0.250000 0.825000
vt 0.250000 1.000000
vt 0.166667 1.000000
vt 0.166667 0.825000
vt -0.000000 1.000000
vt -0.000000 0.825000
vt 0.542154 0.130000
vt 0.957846 0.130000
vt 0.750000 0.010000
vt 0.957846 0.250000
vt 0.542154 0.250000
vt 0.750000 0.490000
vt 0.957846 0.370000
vt 0.542154 0.370000
vt 0.457846 0.370000
vt 0.250000 0.490000
vt 0.042154 0.370000
vt 0.457846 0.250000
vt 0.042154 0.250000
vt 0.250000 0.010000
vt 0.457846 0.130000
vt 0.042154 0.130000
vt 0.833333 0.500000
vt 0.750000 0.500000
vt 0.333333 0.500000
vt 0.250000 0.500000
vt 0.166667 0.500000
vt -0.000000 0.500000
vt 0.500000 0.500000
vt 0.666667 0.500000
vt 1.000000 0.500000
s 0
f 33/1/1 2/2/1 4/3/1 34/4/1
f 40/5/2 14/6/2 6/7/2 35/8/2
f 35/8/3 6/7/3 8/9/3 36/10/3
f 36/10/4 8/9/4 10/11/4 37/12/4
f 6/7/5 14/6/5 19/6/5 21/7/5
f 39/13/6 16/14/6 12/15/6 38/16/6
f 38/16/7 12/15/7 2/17/7 33/18/7
f 9/19/8 5/20/8 7/21/8
f 16/14/9 10/11/9 22/11/9 23/14/9
f 12/15/9 16/14/9 23/14/9 24/15/9
f 13/22/8 5/20/8 9/19/8 15/23/8
f 1/24/8 3/25/8 11/26/8
f 3/25/8 13/22/8 15/23/8 11/26/8
f 14/6/5 4/3/5 17/3/5 19/6/5
f 37/12/6 10/11/6 16/14/6 39/13/6
f 34/4/2 4/3/2 14/6/2 40/5/2
f 19/6/10 17/3/10 25/3/10 27/6/10
f 22/11/11 20/9/11 28/9/11 30/11/11
f 18/17/12 24/15/12 32/15/12 26/17/12
f 24/15/13 23/14/13 31/14/13 32/15/13
f 4/3/14 2/2/14 18/2/14 17/3/14
f 8/9/15 6/7/15 21/7/15 20/9/15
f 2/17/16 12/15/16 24/15/16 18/17/16
f 10/11/17 8/9/17 20/9/17 22/11/17
f 25/27/18 26/28/18 32/29/18
f 27/30/18 25/27/18 32/29/18 31/31/18
f 28/32/18 29/33/18 30/34/18
f 29/33/18 27/30/18 31/31/18 30/34/18
f 21/7/10 19/6/10 27/6/10 29/7/10
f 23/14/13 22/11/13 30/11/13 31/14/13
f 20/9/19 21/7/19 29/7/19 28/9/19
f 17/3/20 18/2/20 26/2/20 25/3/20
f 3/35/2 34/4/2 40/5/2 13/36/2
f 9/37/6 37/12/6 39/13/6 15/38/6
f 11/39/21 38/16/21 33/18/21 1/40/21
f 15/38/6 39/13/6 38/16/6 11/39/6
f 7/41/22 36/10/22 37/12/22 9/37/22
f 5/42/23 35/8/23 36/10/23 7/41/23
f 13/36/2 40/5/2 35/8/2 5/42/2
f 1/43/24 33/1/24 34/4/24 3/35/24
